
<svg width="200" height="32" viewBox="0 0 200 32" fill="none" xmlns="http://www.w3.org/2000/svg">
<path d="M50.5229 25.6382V12.2034H48.2373V8.28485H50.5229V7.6131C50.5229 5.48591 51.1759 3.24676 52.6996 1.79132C54.1144 0.559787 55.9646 0 57.4883 0C58.6855 0 59.665 0.111957 60.4269 0.335872L60.2092 4.4783C59.7739 4.36634 59.1208 4.25438 58.4678 4.25438C56.7265 4.25438 55.9646 5.59787 55.9646 7.38919V8.28485H59.4474V12.3153H55.9646V25.7502H50.5229V25.6382ZM62.0594 13.9947C62.0594 11.4197 61.9506 9.74029 61.9506 8.28485H66.6305L66.8482 11.5316H66.957C67.8277 8.95659 70.0044 7.83702 71.7458 7.83702C72.2899 7.83702 72.5076 7.83702 72.9429 7.94897V13.099C72.5076 12.9871 72.0723 12.9871 71.5281 12.9871C69.569 12.9871 68.1542 14.1066 67.8277 15.674C67.7188 16.0099 67.7188 16.4577 67.7188 16.9056V25.7502H62.2771V13.9947H62.0594ZM79.5819 18.6969C79.7996 20.936 81.9763 22.0556 84.4795 22.0556C86.3297 22.0556 87.8534 21.8317 89.2683 21.3839L90.0301 25.0785C88.2887 25.7502 86.0032 26.198 83.7177 26.198C77.7317 26.198 74.3578 22.7273 74.3578 17.3534C74.3578 12.9871 77.0787 8.06093 83.1735 8.06093C88.8329 8.06093 91.0096 12.4273 91.0096 16.7936C91.0096 17.6893 90.9008 18.5849 90.792 18.9208H79.5819V18.6969ZM86.0032 15.0023C86.0032 13.6588 85.459 11.5316 82.9558 11.5316C80.6703 11.5316 79.6907 13.5468 79.5819 15.0023H86.0032ZM94.2747 20.936C95.2542 21.4958 97.3221 22.2795 98.9546 22.2795C100.587 22.2795 101.24 21.7197 101.24 20.8241C101.24 19.9284 100.696 19.4806 98.6281 18.8088C95.0365 17.5773 93.6217 15.674 93.6217 13.5468C93.6217 10.3001 96.4514 7.83702 100.696 7.83702C102.764 7.83702 104.614 8.28485 105.594 8.84463L104.614 12.5392C103.852 12.0914 102.329 11.5316 100.805 11.5316C99.4988 11.5316 98.7369 12.0914 98.7369 12.9871C98.7369 13.7708 99.39 14.2186 101.567 15.0023C104.941 16.1219 106.247 17.8012 106.355 20.3762C106.355 23.623 103.743 25.9741 98.7369 25.9741C96.4514 25.9741 94.3835 25.5263 93.0775 24.7426L94.2747 20.936ZM109.838 0.44783H115.28V10.412H115.389C115.933 9.62833 116.695 9.06855 117.565 8.62072C118.327 8.17289 119.416 7.94897 120.395 7.94897C123.878 7.94897 126.49 10.3001 126.49 15.5621V25.7502H121.048V16.1219C121.048 13.8827 120.286 12.3153 118.218 12.3153C116.804 12.3153 115.933 13.211 115.498 14.2186C115.389 14.5545 115.28 15.0023 115.28 15.4501V25.7502H109.838V0.44783Z" fill="#068BC8"/>
<path d="M147.995 7.22066C147.886 8.34889 147.886 9.81558 147.886 12.4105V21.8876C147.886 25.2723 147.232 27.98 145.269 29.7852C143.307 31.4776 140.69 31.9288 138.183 31.9288C135.893 31.9288 133.495 31.4776 131.859 30.575L132.95 26.4005C134.04 27.0775 136.002 27.7544 138.074 27.7544C140.69 27.7544 142.653 26.4005 142.653 23.1287V22.0004H142.544C141.454 23.4671 139.818 24.2569 137.856 24.2569C133.495 24.2569 130.442 20.7594 130.442 15.6824C130.442 10.0412 134.149 6.76937 138.401 6.76937C140.799 6.76937 142.326 7.78477 143.198 9.25147H143.307L143.525 7.22066H147.995ZM142.326 14.4413C142.326 14.1028 142.326 13.7644 142.217 13.4259C141.781 11.9592 140.799 11.0566 139.273 11.0566C137.311 11.0566 135.675 12.5233 135.675 15.6824C135.675 18.2773 136.984 20.3081 139.273 20.3081C140.69 20.3081 141.781 19.4055 142.108 18.0516C142.217 17.7132 142.326 17.0362 142.326 16.5849V14.4413ZM157.807 3.49751C157.807 4.9642 156.608 6.20525 154.864 6.20525C153.119 6.20525 152.029 4.9642 152.029 3.49751C152.029 1.91799 153.119 0.789759 154.864 0.789759C156.717 0.676937 157.807 1.91799 157.807 3.49751ZM152.247 25.8364V8.34889H157.698V25.9492H152.247V25.8364ZM162.604 25.8364V12.2977H160.315V8.34889H162.604V7.67195C162.604 5.52832 163.259 3.27186 164.785 1.80516C166.202 0.564114 168.056 0 169.582 0C170.781 0 171.763 0.112823 172.526 0.338468L172.417 4.51291C171.981 4.40009 171.326 4.28727 170.672 4.28727C168.928 4.28727 168.165 5.64114 168.165 7.4463V8.34889H171.654V12.4105H168.165V25.9492H162.604V25.8364ZM180.921 3.27186V8.34889H184.846V12.4105H180.921V18.7286C180.921 20.8722 181.466 21.7748 183.101 21.7748C183.755 21.7748 184.3 21.662 184.737 21.662V25.8364C183.973 26.1749 182.774 26.2877 181.139 26.2877C179.394 26.2877 177.868 25.7236 176.996 24.821C176.015 23.8056 175.469 22.1133 175.469 19.6312V12.4105H173.18V8.34889H175.469V4.51291L180.921 3.27186ZM187.898 21.0979C188.879 21.662 190.951 22.4517 192.586 22.4517C194.222 22.4517 194.876 21.8876 194.876 20.985C194.876 20.0825 194.331 19.6312 192.259 18.9542C188.661 17.7132 187.244 15.7952 187.244 13.6516C187.244 10.3797 190.079 7.89759 194.331 7.89759C196.402 7.89759 198.256 8.34889 199.237 8.913L198.256 12.6362C197.492 12.1849 195.966 11.6207 194.44 11.6207C193.131 11.6207 192.368 12.1849 192.368 13.0874C192.368 13.8772 193.022 14.3285 195.203 15.1183C198.583 16.2465 199.891 17.9388 200 20.5337C200 23.8056 197.383 26.1749 192.368 26.1749C190.079 26.1749 188.007 25.7236 186.699 24.9338L187.898 21.0979Z" fill="#85CA32"/>
<path d="M14.5649 31.1102C14.4859 31.1102 14.4069 31.0283 14.4069 31.0283C14.4069 30.9464 14.4069 30.8645 14.4859 30.8645L46.4193 21.859C46.4983 21.859 46.5774 21.859 46.5774 21.9408C46.5774 22.0227 46.5774 22.1046 46.4983 22.1046L14.5649 31.1102ZM13.3793 30.1277C13.3003 30.1277 13.2212 30.0459 13.2212 30.0459C13.2212 29.964 13.2212 29.8821 13.3003 29.8821L45.2337 20.8765C45.3127 20.8765 45.3917 20.8765 45.3917 20.9584C45.3917 21.0403 45.3917 21.1222 45.3127 21.1222L13.3793 30.1277ZM12.1937 29.1453C12.1146 29.1453 12.0356 29.0634 12.0356 29.0634C12.0356 28.9816 12.0356 28.8997 12.1146 28.8997L44.048 19.8941C44.1271 19.8941 44.2061 19.8941 44.2851 19.976C44.2851 20.0579 44.2851 20.1397 44.2061 20.1397L12.1937 29.1453ZM11.008 28.1629C10.929 28.1629 10.8499 28.081 10.8499 27.9991C10.8499 27.9173 10.8499 27.7535 11.008 27.7535L42.9414 18.748C43.0205 18.748 43.1785 18.748 43.1785 18.9117C43.1785 18.9936 43.1785 19.1573 43.0205 19.1573L11.008 28.1629ZM9.90141 27.1804C9.82236 27.1804 9.74332 27.0986 9.74332 27.0167C9.74332 26.9348 9.74332 26.7711 9.90141 26.7711L41.8348 17.7655C41.9139 17.7655 42.0719 17.7655 42.0719 17.9293C42.0719 18.0111 42.0719 18.1749 41.9138 18.1749L9.90141 27.1804ZM8.71576 26.1162C8.63672 26.1162 8.55768 26.0343 8.47863 25.9524C8.47863 25.8705 8.47863 25.7068 8.63672 25.7068L40.5701 16.7012C40.6492 16.7012 40.8072 16.7012 40.8072 16.865C40.8072 16.9468 40.8072 17.1106 40.6492 17.1106L8.71576 26.1162ZM7.53012 25.1337C7.45107 25.1337 7.37203 25.0519 7.29299 24.97C7.29299 24.8063 7.29299 24.7244 7.45107 24.6425L39.3845 15.6369C39.5426 15.6369 39.6216 15.6369 39.7006 15.8007C39.7006 15.9644 39.7006 16.0463 39.5426 16.1282L7.53012 25.1337ZM6.34447 24.1513C6.26543 24.1513 6.10734 24.0694 6.10734 23.9876C6.10734 23.8238 6.18638 23.742 6.26543 23.6601L38.1988 14.6545C38.3569 14.6545 38.436 14.7364 38.515 14.8183C38.515 14.982 38.436 15.0639 38.3569 15.1457L6.34447 24.1513ZM5.15882 23.1689C5.07978 23.1689 4.92169 23.087 4.92169 23.0051C4.92169 22.8414 5.00074 22.6777 5.07978 22.6777L37.0132 13.6721C37.1713 13.6721 37.3294 13.754 37.3294 13.8358C37.3294 13.9996 37.2503 14.1633 37.1713 14.1633L5.15882 23.1689ZM3.97318 22.1865C3.81509 22.1865 3.73605 22.1046 3.73605 21.9408C3.65701 21.7771 3.81509 21.6134 3.89413 21.6134L35.8275 12.6078C35.9856 12.5259 36.1437 12.6897 36.1437 12.7715C36.2228 12.9353 36.0647 13.099 35.9856 13.099L3.97318 22.1865ZM2.78753 21.204C2.62945 21.204 2.5504 21.1222 2.47136 20.9584C2.39232 20.7947 2.5504 20.6309 2.70849 20.5491L34.6419 11.5435C34.8 11.4616 34.9581 11.6254 35.0371 11.7891C35.1161 11.9528 34.9581 12.1166 34.8 12.1985L2.78753 21.204ZM1.60189 20.2216C1.4438 20.2216 1.36476 20.1397 1.28571 19.976C1.20667 19.8123 1.36476 19.6485 1.52284 19.5666L33.4562 10.5611C33.6143 10.4792 33.7724 10.6429 33.8515 10.8067C33.9305 10.9704 33.7724 11.1342 33.6143 11.216L1.68093 20.2216H1.60189ZM0.337197 19.1573C0.179111 19.1573 0.0210244 19.0754 0.0210244 18.9117C-0.0580187 18.748 0.100067 18.5842 0.258154 18.5024L32.1916 9.49678C32.3496 9.41491 32.5868 9.57865 32.5868 9.74239C32.6658 9.90613 32.5077 10.0699 32.3496 10.1517L0.41624 19.1573H0.337197Z" fill="#6FBF54"/>
<path d="M19.4656 27.1805C19.0704 27.1805 18.7543 27.0167 18.4381 26.853L10.3757 20.2216C9.98047 19.8941 9.82239 19.4848 9.82239 18.9936V4.66652C9.82239 3.84784 10.3757 3.19288 11.1661 3.11102L24.3663 0H24.6034C24.8406 0 25.0777 0.0818688 25.3148 0.163738L34.4048 5.89456C34.9581 6.14016 35.2742 6.71324 35.2742 7.28633V21.5315C35.2742 22.2683 34.8 22.8414 34.0886 23.087L19.8609 27.0986C19.7818 27.0986 19.6237 27.1805 19.4656 27.1805Z" fill="#068BC8"/>
<path d="M14.4069 9.90614V9.66054C14.4069 9.25119 14.4859 8.84185 14.565 8.51437C14.644 8.1869 14.8812 7.53195 15.5925 6.877C16.0668 6.54952 16.6201 6.30391 17.0944 6.22205C17.5686 6.30391 17.9638 6.46765 18.201 6.71326C18.28 6.877 18.28 7.04073 18.28 7.20447C18.201 7.28634 18.1219 7.36821 17.9638 7.45008C17.8848 7.53195 17.7267 7.53195 17.5686 7.45008C17.3315 7.20447 16.9363 6.95887 16.5411 6.95887C16.1458 6.95887 15.9087 7.1226 15.7506 7.36821C15.5925 7.61382 15.3554 8.26877 15.3554 9.41493V9.90614H16.9363C17.0153 9.98801 16.9363 10.3974 16.7782 10.4792H15.2764V14.4089C15.2764 15.3914 15.3554 15.4732 16.462 15.5551V15.8826H13.3003V15.5551C14.1698 15.4732 14.3279 15.3914 14.3279 14.4908V10.4792H13.4584L13.3793 10.3155L13.7746 9.90614H14.4069ZM23.4178 9.98801C23.3388 10.2336 23.0226 10.5611 22.7855 10.7248L21.995 10.643C22.2322 10.9704 22.3902 11.3798 22.3902 11.871C22.3902 13.3446 21.2046 14.0815 20.0189 14.0815C19.7818 14.0815 19.5447 14.0815 19.3076 13.9996C19.0704 14.1633 18.8333 14.4089 18.8333 14.5727C18.8333 14.8183 19.0704 15.0639 19.6237 15.0639H21.1256C21.995 15.0639 23.1016 15.3914 23.1016 16.7013C23.1016 18.093 21.5208 19.4029 19.7028 19.4029C18.201 19.4029 17.3315 18.5024 17.3315 17.6837C17.3315 17.4381 17.4105 17.1106 17.6477 16.865C17.8848 16.6194 18.4381 16.1282 18.7543 15.8826C18.28 15.7188 17.9638 15.3914 17.7267 15.1457C17.6477 14.982 17.5686 14.7364 17.5686 14.5727C18.0429 14.4089 18.5171 13.9996 18.7543 13.754C18.201 13.5084 17.5686 12.9353 17.5686 11.9529C17.5686 10.3974 18.9914 9.66054 20.0189 9.66054C20.4142 9.66054 20.8884 9.74241 21.2836 9.98801C21.916 9.98801 22.5483 9.90614 23.1016 9.82427L23.4178 9.98801ZM20.4142 16.0463C19.7818 16.0463 19.4657 16.1282 19.1495 16.3738C18.7543 16.7013 18.5171 17.1106 18.5171 17.5199C18.5171 18.2568 19.3076 18.748 20.3351 18.748C21.6789 18.748 22.3902 18.093 22.3902 17.1925C22.3902 16.7831 22.1531 16.3738 21.8369 16.21C21.3627 16.0463 20.9675 16.0463 20.4142 16.0463ZM20.0189 10.2336C19.3866 10.2336 18.8333 10.8067 18.8333 11.871C18.8333 12.9353 19.3866 13.6721 20.177 13.6721C20.8094 13.6721 21.3627 13.099 21.3627 12.0347C21.3627 10.8886 20.8094 10.2336 20.0189 10.2336Z" fill="white"/>
</svg>
